name analog
datacolumns 19
datarows 44
range 0.3525 0.374
endheader
time	ground_force_vx	ground_force_vy	ground_force_vz	ground_force_px	ground_force_py	ground_force_pz	l_ground_force_vx	l_ground_force_vy	l_ground_force_vz	l_ground_force_px	l_ground_force_py	l_ground_force_pz	ground_torque_x	ground_torque_y	ground_torque_z	l_ground_torque_x	l_ground_torque_y	l_ground_torque_z
0.3525	-0.0	-0.0	-0.0	-8.118156433105469	-2.370908498764038	-780.4559326171875	-0.0	-0.0	-0.0	-34.97826385498047	16.212406158447266	77.13975524902344	-0.0	-0.0	-0.0	-0.0	-0.0	-0.0
0.353	-0.0	-0.0	-0.0	-7.975429058074951	-2.3530402183532715	-776.360107421875	-0.0	-0.0	-0.0	-34.74576950073242	16.122360229492188	77.5584945678711	-0.0	-0.0	-0.0	-0.0	-0.0	-0.0
0.3535	-0.0	-0.0	-0.0	-7.993322372436523	-1.7113491296768188	-772.3342895507812	-0.0	-0.0	-0.0	-34.81758499145508	16.44668197631836	75.38542938232422	-0.0	-0.0	-0.0	-0.0	-0.0	-0.0
0.354	-0.0	-0.0	-0.0	-8.243103981018066	-0.7307637333869934	-771.1343383789062	-0.0	-0.0	-0.0	-34.95990753173828	16.374473571777344	75.7336654663086	-0.0	-0.0	-0.0	-0.0	-0.0	-0.0
0.3545	-0.0	-0.0	-0.0	-8.528434753417969	-0.4099094569683075	-768.73291015625	-0.0	-0.0	-0.0	-34.692378997802734	16.285465240478516	76.64495086669922	-0.0	-0.0	-0.0	-0.0	-0.0	-0.0
0.355	-0.0	-0.0	-0.0	-8.760782241821289	-0.1067496016621589	-768.2362060546875	-0.0	-0.0	-0.0	-34.51246643066406	16.15936851501465	76.08802795410156	-0.0	-0.0	-0.0	-0.0	-0.0	-0.0
0.3555	-0.0	-0.0	-0.0	-9.634735107421877	0.5530316829681396	-767.318115234375	-0.0	-0.0	-0.0	-34.76332092285156	16.194534301757812	76.22490692138672	-0.0	-0.0	-0.0	-0.0	-0.0	-0.0
0.356	-0.0	-0.0	-0.0	-10.098272323608398	0.4649074971675873	-768.44677734375	-0.0	-0.0	-0.0	-34.745948791503906	16.211965560913086	76.717041015625	-0.0	-0.0	-0.0	-0.0	-0.0	-0.0
0.3565	-0.0	-0.0	-0.0	-10.989389419555664	0.0174420177936553	-767.9590454101562	-0.0	-0.0	-0.0	-34.816646575927734	15.889817237854004	76.08297729492188	-0.0	-0.0	-0.0	-0.0	-0.0	-0.0
0.357	-0.0	-0.0	-0.0	-13.308599472045898	-1.176061987876892	-770.9183959960938	-0.0	-0.0	-0.0	-34.691001892089844	16.26551055908203	76.8520278930664	-0.0	-0.0	-0.0	-0.0	-0.0	-0.0
0.3575	-0.0	-0.0	-0.0	-13.932808876037598	-2.103210210800171	-772.9000244140625	-0.0	-0.0	-0.0	-34.94395446777344	16.35907554626465	75.74560546875	-0.0	-0.0	-0.0	-0.0	-0.0	-0.0
0.358	-0.0	-0.0	-0.0	-14.309648513793944	-3.937587738037109	-773.8856811523438	-0.0	-0.0	-0.0	-34.69084167480469	16.068191528320312	77.49324798583984	-0.0	-0.0	-0.0	-0.0	-0.0	-0.0
0.3585	-0.0	-0.0	-0.0	-14.16887092590332	-5.29146671295166	-775.4406127929688	-0.0	-0.0	-0.0	-34.907958984375	16.1217098236084	75.38783264160156	-0.0	-0.0	-0.0	-0.0	-0.0	-0.0
0.359	-0.0	-0.0	-0.0	-12.918397903442385	-5.258693695068359	-774.5235595703125	-0.0	-0.0	-0.0	-34.79704666137695	16.23098373413086	76.09002685546875	-0.0	-0.0	-0.0	-0.0	-0.0	-0.0
0.3595	-0.0	-0.0	-0.0	-11.866880416870115	-5.29284143447876	-772.8328247070312	-0.0	-0.0	-0.0	-34.782405853271484	15.90518856048584	75.8056640625	-0.0	-0.0	-0.0	-0.0	-0.0	-0.0
0.36	-0.0	-0.0	-0.0	-11.510161399841309	-3.851635694503784	-771.3529663085938	-0.0	-0.0	-0.0	-34.92509078979492	15.961118698120115	74.9614028930664	-0.0	-0.0	-0.0	-0.0	-0.0	-0.0
0.3605	-0.0	-0.0	-0.0	-11.669611930847168	-3.0834734439849854	-767.813232421875	-0.0	-0.0	-0.0	-35.01458740234375	15.871187210083008	76.43101501464844	-0.0	-0.0	-0.0	-0.0	-0.0	-0.0
0.361	-0.0	-0.0	-0.0	-12.827041625976562	-2.192131757736206	-764.8446044921875	-0.0	-0.0	-0.0	-35.05387878417969	16.284503936767578	75.24640655517578	-0.0	-0.0	-0.0	-0.0	-0.0	-0.0
0.3615	-0.0	-0.0	-0.0	-13.540690422058104	-1.801897406578064	-761.7520141601562	-0.0	-0.0	-0.0	-34.92517852783203	16.38831329345703	75.52027130126953	-0.0	-0.0	-0.0	-0.0	-0.0	-0.0
0.362	-0.0	-0.0	-0.0	-14.00605010986328	-1.9582419395446775	-758.2108764648438	-0.0	-0.0	-0.0	-34.762935638427734	16.270931243896484	76.57283020019531	-0.0	-0.0	-0.0	-0.0	-0.0	-0.0
0.3625	-0.0	-0.0	-0.0	-13.024734497070312	-2.2310750484466557	-755.2422485351562	-0.0	-0.0	-0.0	-34.81590270996094	16.374473571777344	75.5327377319336	-0.0	-0.0	-0.0	-0.0	-0.0	-0.0
0.363	-0.0	-0.0	-0.0	-10.900373458862305	-2.8550479412078857	-755.1875610351562	-0.0	-0.0	-0.0	-34.76288604736328	16.334396362304688	75.32496643066406	-0.0	-0.0	-0.0	-0.0	-0.0	-0.0
0.3635	-0.0	-0.0	-0.0	-9.598437309265137	-2.3868567943573	-754.3265380859375	-0.0	-0.0	-0.0	-34.83226776123047	16.37087631225586	75.7410888671875	-0.0	-0.0	-0.0	-0.0	-0.0	-0.0
0.364	-0.0	-0.0	-0.0	-7.404472351074219	-2.241534471511841	-755.5828247070312	-0.0	-0.0	-0.0	-35.10049057006836	16.14130973815918	75.3113784790039	-0.0	-0.0	-0.0	-0.0	-0.0	-0.0
0.3645	-0.0	-0.0	-0.0	-6.314114093780518	-2.122629165649414	-757.2177734375	-0.0	-0.0	-0.0	-34.72624969482422	16.194534301757812	76.37920379638672	-0.0	-0.0	-0.0	-0.0	-0.0	-0.0
0.365	-0.0	-0.0	-0.0	-6.254166126251221	-1.9444434642791748	-760.670654296875	-0.0	-0.0	-0.0	-34.587860107421875	16.071809768676758	74.73704528808594	-0.0	-0.0	-0.0	-0.0	-0.0	-0.0
0.3655	-0.0	-0.0	-0.0	-6.552483558654785	-2.4228708744049072	-766.8330688476562	-0.0	-0.0	-0.0	-34.677467346191406	16.19876480102539	75.53480529785156	-0.0	-0.0	-0.0	-0.0	-0.0	-0.0
0.366	-0.0	-0.0	-0.0	-6.3941650390625	-3.772442579269409	-773.0166625976562	-0.0	-0.0	-0.0	-34.787376403808594	16.10881996154785	74.5289535522461	-0.0	-0.0	-0.0	-0.0	-0.0	-0.0
0.3665	-0.0	-0.0	-0.0	-6.463528633117676	-4.399919509887695	-772.9020385742188	-0.0	-0.0	-0.0	-34.74655532836914	15.903964042663574	75.7424087524414	-0.0	-0.0	-0.0	-0.0	-0.0	-0.0
0.367	-0.0	-0.0	-0.0	-6.885413646697998	-4.54155969619751	-774.7322998046875	-0.0	-0.0	-0.0	-34.820003509521484	16.284503936767578	76.507568359375	-0.0	-0.0	-0.0	-0.0	-0.0	-0.0
0.3675	-0.0	-0.0	-0.0	-7.067999839782715	-3.994725465774536	-774.5235595703125	-0.0	-0.0	-0.0	-34.88880157470703	16.406658172607422	76.09384155273438	-0.0	-0.0	-0.0	-0.0	-0.0	-0.0
0.368	-0.0	-0.0	-0.0	-6.699491500854492	-3.459998607635498	-774.9577026367188	-0.0	-0.0	-0.0	-34.70988464355469	16.19942855834961	76.42591857910156	-0.0	-0.0	-0.0	-0.0	-0.0	-0.0
0.3685	-0.0	-0.0	-0.0	-6.297354221343994	-1.8511908054351809	-773.8806762695312	-0.0	-0.0	-0.0	-35.099456787109375	16.056684494018555	75.59906005859375	-0.0	-0.0	-0.0	-0.0	-0.0	-0.0
0.369	-0.0	-0.0	-0.0	-5.341407775878906	-1.2525495290756226	-773.2371826171875	-0.0	-0.0	-0.0	-34.76776123046875	16.337430953979492	75.74370574951172	-0.0	-0.0	-0.0	-0.0	-0.0	-0.0
0.3695	-0.0	-0.0	-0.0	-4.4605255126953125	-0.7082511782646179	-771.5971069335938	-0.0	-0.0	-0.0	-34.7151985168457	16.120420455932617	75.04190826416016	-0.0	-0.0	-0.0	-0.0	-0.0	-0.0
0.37	-0.0	-0.0	-0.0	-4.266256332397461	-1.1537151336669922	-769.308349609375	-0.0	-0.0	-0.0	-34.657310485839844	16.337379455566406	76.36286926269531	-0.0	-0.0	-0.0	-0.0	-0.0	-0.0
0.3705	-0.0	-0.0	-0.0	-3.946208238601685	-1.441845178604126	-767.3565673828125	-0.0	-0.0	-0.0	-34.82065200805664	16.380197525024414	75.12608337402344	-0.0	-0.0	-0.0	-0.0	-0.0	-0.0
0.371	-0.0	-0.0	-0.0	-3.56842041015625	-1.5676376819610596	-765.6318359375	-0.0	-0.0	-0.0	-35.10466384887695	16.104564666748047	75.82846069335938	-0.0	-0.0	-0.0	-0.0	-0.0	-0.0
0.3715	-0.0	-0.0	-0.0	-2.4556338787078857	-1.5519640445709229	-765.2572631835938	-0.0	-0.0	-0.0	-34.63591766357422	15.90904426574707	75.86643981933594	-0.0	-0.0	-0.0	-0.0	-0.0	-0.0
0.372	-0.0	-0.0	-0.0	-1.1285871267318726	-2.3697359561920166	-764.98779296875	-0.0	-0.0	-0.0	-34.8671989440918	16.284503936767578	75.59994506835938	-0.0	-0.0	-0.0	-0.0	-0.0	-0.0
0.3725	-0.0	-0.0	-0.0	0.4248021841049194	-2.526763200759888	-763.2218017578125	-0.0	-0.0	-0.0	-34.805545806884766	15.98359489440918	76.3984603881836	-0.0	-0.0	-0.0	-0.0	-0.0	-0.0
0.373	-0.0	-0.0	-0.0	0.719552755355835	-3.098219871520996	-763.1373291015625	-0.0	-0.0	-0.0	-34.68816375732422	16.209959030151367	75.33438110351562	-0.0	-0.0	-0.0	-0.0	-0.0	-0.0
0.3735	-0.0	-0.0	-0.0	1.1013647317886353	-3.654346466064453	-763.367919921875	-0.0	-0.0	-0.0	-34.73172378540039	16.194534301757812	75.66012573242188	-0.0	-0.0	-0.0	-0.0	-0.0	-0.0
0.374	-0.0	-0.0	-0.0	1.5750505924224854	-4.136886119842529	-767.5817260742188	-0.0	-0.0	-0.0	-34.88209915161133	16.299800872802734	76.60061645507812	-0.0	-0.0	-0.0	-0.0	-0.0	-0.0
